<svg width="130" height="100" viewBox="0 0 130 100" fill="none" xmlns="http://www.w3.org/2000/svg">
<path d="M90.4251 33.834L88.4838 26.2666C88.4282 26.0441 88.2489 25.871 88.0263 25.8153L80.527 23.9667C80.4714 23.9544 80.4095 23.9482 80.3539 23.9482C80.1746 23.9297 79.9891 23.9853 79.8531 24.1213L67.1976 36.7769L65.5221 30.2358C65.4665 30.0132 65.2872 29.8401 65.0646 29.7845L58.6225 28.1956L71.2718 15.5462C71.346 15.472 71.3893 15.3793 71.4202 15.2865C71.4758 15.1629 71.4944 15.0207 71.4573 14.8847L69.516 7.31731C69.4604 7.09474 69.2811 6.92163 69.0585 6.86599L61.5591 5.01743C61.4108 4.98033 61.2624 5.00506 61.1326 5.06689H61.1264C61.0893 5.08544 61.0584 5.11017 61.0213 5.1349C60.9904 5.15963 60.9471 5.17199 60.9224 5.2029L39.3331 26.7798C39.3331 26.7798 39.296 26.8416 39.2713 26.8725C39.1353 27.0333 39.0858 27.2435 39.1477 27.4475L41.2435 34.7614C41.3053 34.9716 41.4661 35.1323 41.6701 35.188L48.6934 37.2034L50.7089 44.2206C50.7707 44.4308 50.9315 44.5915 51.1355 44.6472L58.1835 46.6688L60.2052 53.7169C60.267 53.9271 60.4278 54.0878 60.6318 54.1435L67.9766 56.2517C68.0322 56.2702 68.094 56.2764 68.1497 56.2764C68.162 56.2764 68.1744 56.2702 68.1929 56.2702C68.1929 56.2702 68.1991 56.2702 68.2053 56.2702C68.3661 56.2702 68.5268 56.2084 68.6505 56.0848L90.2459 34.4893C90.32 34.4151 90.3633 34.3224 90.3942 34.2297C90.4499 34.106 90.4684 33.9638 90.4313 33.8278L90.4251 33.834ZM80.7434 42.2236L79.1669 36.0721L82.66 32.5851L88.6631 34.31L80.7496 42.2298L80.7434 42.2236ZM68.4959 54.4711L66.9194 48.3196L73.2379 42.0011L79.241 43.726L68.4959 54.4711ZM73.3677 40.103L71.8592 34.8479L77.2812 36.1833L73.3677 40.0969V40.103ZM78.1406 37.0983L79.5254 42.4957L74.2518 40.9809L78.1406 37.0922V37.0983ZM78.3198 35.1509L72.1745 33.6362L80.0695 25.7411L81.7759 31.6949L78.3198 35.1509ZM70.6474 35.157L72.3538 41.1108L66.0662 47.3984L59.9208 45.8837L70.6474 35.157ZM87.3648 26.9282L88.9414 33.0797L82.9814 31.3672L81.2751 25.4258L87.3648 26.9282ZM58.9934 44.9686L57.4169 38.8171L59.692 36.5419L65.6952 38.2668L58.9934 44.9686ZM59.8219 34.6439L58.3133 29.3888L63.7354 30.7242L59.8219 34.6377V34.6439ZM65.9796 37.0427L60.706 35.528L64.5947 31.6392L65.9796 37.0365V37.0427ZM58.8141 35.6578L56.5699 37.9021L50.4245 36.3874L57.1078 29.7041L58.8141 35.6578ZM51.7414 16.1397L53.4477 22.0935L47.1045 28.4367L40.9591 26.922L51.7414 16.1397ZM61.1078 6.77325L62.8142 12.727L59.4138 16.1274L53.2684 14.6126L61.1078 6.77325ZM61.8374 23.2001L60.2608 17.0547L63.6983 13.6173L69.7015 15.336L61.8374 23.2001ZM54.4617 21.0857L52.9531 15.8306L58.3752 17.166L54.4617 21.0795V21.0857ZM59.2345 18.081L60.6194 23.4783L55.3519 21.9636L59.2407 18.0748L59.2345 18.081ZM54.338 22.9775L60.3412 24.6963L49.5404 35.4971L47.9639 29.3517L54.338 22.9775ZM68.4032 7.97266L69.9797 14.1242L64.0198 12.4117L62.3134 6.47031L68.4032 7.97266ZM40.65 28.1399L46.072 29.4753L42.1585 33.3889L40.65 28.1337V28.1399ZM43.0426 34.2791L46.9314 30.3903L48.3163 35.7877L43.0488 34.273L43.0426 34.2791ZM51.8156 43.5467L50.1092 37.6053L56.1989 39.1077L57.7755 45.2592L51.8156 43.5467ZM59.6117 47.1016L65.0337 48.437L61.1202 52.3505L59.6117 47.0954V47.1016ZM62.0043 53.2408L65.8931 49.352L67.2779 54.7493L62.0043 53.2346V53.2408Z" fill="url(#paint0_linear_1668_24226)"/>
<path d="M19.8487 91.2923C17.8641 91.2923 16.1392 90.8967 14.6554 90.1053C13.1778 89.3139 12.0279 88.2382 11.2179 86.8657C10.4019 85.4994 10 83.9228 10 82.1423C10 80.3617 10.3957 78.7852 11.187 77.4188C11.9784 76.0525 13.0665 74.9706 14.4576 74.1792C15.8486 73.3879 17.4313 72.9922 19.2181 72.9922C21.0048 72.9922 22.501 73.3755 23.8611 74.1421C25.2213 74.9088 26.2847 75.9845 27.0636 77.3632C27.8426 78.7419 28.2321 80.3803 28.2321 82.2721C28.2321 82.4267 28.2321 82.6245 28.2136 82.8594C28.2012 83.0944 28.1889 83.2984 28.1641 83.4777H13.3076V80.7079H25.9632L24.2939 81.5735C24.3186 80.5719 24.1084 79.6755 23.6756 78.8841C23.2429 78.0927 22.6432 77.4807 21.8889 77.0479C21.1346 76.6151 20.2382 76.3987 19.2181 76.3987C18.198 76.3987 17.3201 76.6151 16.5287 77.0479C15.7373 77.4807 15.1315 78.0989 14.711 78.9026C14.2906 79.7064 14.0743 80.6276 14.0743 81.6724V82.3401C14.0743 83.4097 14.3154 84.3556 14.7914 85.1779C15.2675 86.0001 15.9537 86.6431 16.844 87.0944C17.7343 87.5519 18.7668 87.7807 19.9476 87.7807C20.9492 87.7807 21.8518 87.6138 22.6494 87.2799C23.4531 86.9461 24.1641 86.4576 24.7885 85.8085L27.0575 88.4113C26.2352 89.3449 25.2151 90.062 24.0033 90.5504C22.7916 91.0389 21.4067 91.2862 19.8487 91.2862V91.2923Z" fill="white"/>
<path d="M28.1951 76.7019V73.3633H40.0778V76.7019H28.1951ZM37.2771 91.2925C35.3173 91.2925 33.8026 90.7856 32.7392 89.7716C31.6696 88.7577 31.1379 87.2739 31.1379 85.3141V69.2891H35.2802V85.178C35.2802 86.0251 35.5028 86.6804 35.9479 87.1503C36.393 87.6201 37.0175 87.8489 37.815 87.8489C38.73 87.8489 39.4843 87.6016 40.084 87.1132L41.2834 90.0869C40.7702 90.4888 40.1582 90.7856 39.4472 90.9896C38.7362 91.1874 38.0128 91.2925 37.2771 91.2925Z" fill="white"/>
<path d="M52.8322 72.9984C54.2789 72.9984 55.5525 73.2766 56.6529 73.833C57.7534 74.3894 58.6313 75.2488 59.2929 76.4049C59.9482 77.561 60.2759 79.0448 60.2759 80.8439V91.0574H56.1027V81.3756C56.1027 79.7929 55.7379 78.6182 55.0022 77.8392C54.2665 77.0603 53.2217 76.6708 51.8615 76.6708C50.8847 76.6708 50.0129 76.8686 49.2587 77.2705C48.5044 77.6723 47.9171 78.2658 47.509 79.0572C47.0948 79.8486 46.8908 80.8439 46.8908 82.0433V91.0574H42.7485V66.2842H46.8908V78.068L46.0253 76.5657C46.625 75.4281 47.5214 74.5502 48.7146 73.9257C49.9079 73.3013 51.2804 72.9922 52.8383 72.9922L52.8322 72.9984Z" fill="white"/>
<path d="M71.6331 91.2923C69.6485 91.2923 67.9236 90.8967 66.4398 90.1053C64.9622 89.3139 63.8123 88.2382 63.0024 86.8657C62.1863 85.4994 61.7844 83.9228 61.7844 82.1423C61.7844 80.3617 62.1801 78.7852 62.9715 77.4188C63.7628 76.0525 64.8509 74.9706 66.242 74.1792C67.633 73.3879 69.2158 72.9922 71.0025 72.9922C72.7892 72.9922 74.2854 73.3755 75.6455 74.1421C77.0057 74.9088 78.0691 75.9845 78.8481 77.3632C79.6271 78.7419 80.0166 80.3803 80.0166 82.2721C80.0166 82.4267 80.0166 82.6245 79.998 82.8594C79.9856 83.0944 79.9733 83.2984 79.9485 83.4777H65.092V80.7079H77.7476L76.0783 81.5735C76.103 80.5719 75.8928 79.6755 75.4601 78.8841C75.0273 78.0927 74.4276 77.4807 73.6733 77.0479C72.9191 76.6151 72.0226 76.3987 71.0025 76.3987C69.9824 76.3987 69.1045 76.6151 68.3131 77.0479C67.5218 77.4807 66.9159 78.0989 66.4955 78.9026C66.0751 79.7064 65.8587 80.6276 65.8587 81.6724V82.3401C65.8587 83.4097 66.0998 84.3556 66.5758 85.1779C67.0519 86.0001 67.7381 86.6431 68.6284 87.0944C69.5187 87.5519 70.5512 87.7807 71.732 87.7807C72.7336 87.7807 73.6362 87.6138 74.4338 87.2799C75.2375 86.9461 75.9485 86.4576 76.5729 85.8085L78.8419 88.4113C78.0196 89.3449 76.9995 90.062 75.7877 90.5504C74.576 91.0389 73.1911 91.2862 71.6331 91.2862V91.2923Z" fill="white"/>
<path d="M81.8775 91.0571V73.2268H85.8529V78.1357L85.383 76.7014C85.8961 75.502 86.7308 74.5808 87.8869 73.9502C89.043 73.3134 90.4588 72.998 92.1281 72.998V76.9734C91.9735 76.9487 91.819 76.9363 91.6582 76.9239C91.5036 76.9116 91.3553 76.9054 91.2254 76.9054C89.6242 76.9054 88.3568 77.3629 87.417 78.2717C86.4835 79.1867 86.0136 80.5778 86.0136 82.4449V91.0571H81.8713H81.8775Z" fill="white"/>
<path d="M99.9736 76.7016V73.3631H111.856V76.7016H99.9736ZM102.91 91.0573V72.2626C102.91 70.3707 103.461 68.8622 104.561 67.737C105.662 66.6118 107.238 66.0492 109.284 66.0492C110.02 66.0492 110.713 66.1295 111.374 66.2841C112.029 66.4387 112.58 66.686 113.025 67.0198L111.856 70.1234C111.566 69.9256 111.22 69.7587 110.824 69.6227C110.422 69.4866 110.014 69.4248 109.587 69.4248C108.722 69.4248 108.06 69.6659 107.615 70.142C107.17 70.618 106.947 71.329 106.947 72.2626V74.3337L107.046 76.1699V91.0573H102.904H102.91ZM116.901 70.2904C116.122 70.2904 115.485 70.0431 114.985 69.5546C114.484 69.0662 114.237 68.4665 114.237 67.7494C114.237 67.0817 114.484 66.5005 114.985 66.0121C115.485 65.5237 116.122 65.2764 116.901 65.2764C117.68 65.2764 118.317 65.5051 118.824 65.9626C119.325 66.4201 119.572 67.0013 119.572 67.7123C119.572 68.4233 119.325 69.0291 118.836 69.5299C118.348 70.0307 117.699 70.2842 116.901 70.2842V70.2904ZM114.83 91.0573V73.227H118.972V91.0573H114.83Z" fill="white"/>
<path d="M97.0865 90.3709L95.4296 87.632C95.306 87.4342 95.0896 87.3105 94.8608 87.3105H94.8485C94.6135 87.3105 94.391 87.4466 94.2735 87.6568L92.7341 90.4389C92.5239 90.8222 92.5239 91.2859 92.7341 91.6692L94.2797 94.4575C94.3972 94.6677 94.6135 94.7975 94.8547 94.8037H94.8608C95.0958 94.8037 95.3183 94.6801 95.4358 94.476L97.0865 91.6816C97.3276 91.2797 97.3215 90.7789 97.0865 90.3771V90.3709Z" fill="white"/>
<defs>
<linearGradient id="paint0_linear_1668_24226" x1="42.6779" y1="38.6872" x2="87.1237" y2="22.5077" gradientUnits="userSpaceOnUse">
<stop stop-color="#29BCFA"/>
<stop offset="0.43" stop-color="#6464E4"/>
<stop offset="1" stop-color="#B45AFA"/>
</linearGradient>
</defs>
</svg>
