<svg width="194" height="35" viewBox="0 0 194 35" fill="none" xmlns="http://www.w3.org/2000/svg">
<path d="M56.6102 10.4536H33.3684C31.9683 7.23132 29.6306 4.50988 26.6622 2.64693C23.6939 0.783984 20.2339 -0.133292 16.737 0.0156448C7.49369 0.37193 0.0647298 8.08688 0.000418257 17.3777C-0.0273445 21.4039 1.32777 25.3166 3.8373 28.4562C6.34683 31.5957 9.85728 33.77 13.7768 34.6125C17.6963 35.4551 21.7852 34.9143 25.354 33.0813C28.9229 31.2484 31.7534 28.2354 33.3684 24.5504H35.362C35.7112 24.5493 36.0489 24.425 36.316 24.1992C36.5832 23.9734 36.7629 23.6605 36.8237 23.3151C37.1472 21.5141 39.2344 20.4198 41.1111 21.6845C41.3628 21.8668 41.5732 22.1006 41.7284 22.3706C41.8836 22.6405 41.98 22.9404 42.0115 23.2505C42.0586 23.6094 42.2337 23.9388 42.5043 24.1779C42.7748 24.4169 43.1225 24.5492 43.4828 24.5504H46.3008C46.6501 24.5497 46.988 24.4256 47.2552 24.1997C47.5225 23.9738 47.702 23.6607 47.7625 23.3151C48.086 21.5141 50.1732 20.4198 52.0499 21.6845C52.3016 21.8668 52.512 22.1006 52.6672 22.3706C52.8224 22.6405 52.9188 22.9404 52.9503 23.2505C52.9974 23.6094 53.1725 23.9388 53.4431 24.1779C53.7136 24.4169 54.0613 24.5492 54.4216 24.5504H57.9023C58.1033 24.5504 58.2961 24.4702 58.4383 24.3274C58.5805 24.1845 58.6603 23.9909 58.6603 23.7889C58.6603 23.0859 58.9384 22.4117 59.4332 21.9146C59.9281 21.4175 60.5992 21.1383 61.2991 21.1383C61.5001 21.1383 61.693 21.0581 61.8351 20.9152C61.9773 20.7724 62.0572 20.5787 62.0572 20.3768V15.9154C62.0569 15.1974 61.9158 14.4865 61.6418 13.8233C61.3679 13.1601 60.9665 12.5577 60.4606 12.0505C59.9547 11.5432 59.3543 11.1411 58.6936 10.8671C58.0329 10.5931 57.325 10.4526 56.6102 10.4536ZM57.2046 23.0274H54.4411C54.2647 22.0683 53.7594 21.2015 53.013 20.5777C52.2667 19.9538 51.3264 19.6122 50.3554 19.6122C49.3844 19.6122 48.4441 19.9538 47.6977 20.5777C46.9514 21.2015 46.4461 22.0683 46.2697 23.0274H43.5062C43.3298 22.0683 42.8245 21.2015 42.0781 20.5777C41.3318 19.9538 40.3915 19.6122 39.4205 19.6122C38.4495 19.6122 37.5092 19.9538 36.7628 20.5777C36.0165 21.2015 35.5112 22.0683 35.3347 23.0274H32.3569L32.162 23.5031C30.776 26.9388 28.2437 29.7835 24.999 31.5498C21.7543 33.3161 17.9992 33.8941 14.3769 33.1849C10.7545 32.4756 7.49045 30.5232 5.14375 27.6621C2.79704 24.8009 1.51378 21.2091 1.51378 17.502C1.51378 13.7949 2.79704 10.2031 5.14375 7.34198C7.49045 4.48085 10.7545 2.52842 14.3769 1.81915C17.9992 1.10988 21.7543 1.68792 24.999 3.45424C28.2437 5.22055 30.776 8.06523 32.162 11.501L32.3569 11.9767H56.6102C57.3336 11.9773 58.0428 12.1787 58.6594 12.5587C59.2761 12.9387 59.7761 13.4825 60.1044 14.13H29.3986L28.4807 12.7127C28.4173 12.6151 28.3306 12.5349 28.2285 12.4795C28.1264 12.4241 28.0121 12.3953 27.896 12.3956H24.5967L20.966 6.55015C20.9039 6.45057 20.8177 6.36837 20.7155 6.31121C20.6133 6.25406 20.4983 6.22379 20.3813 6.22323H18.0232C17.8556 5.6291 17.4796 5.11593 16.9648 4.77843C16.4499 4.44093 15.8309 4.30186 15.222 4.38689C14.6131 4.47193 14.0553 4.77532 13.6516 5.24109C13.2479 5.70686 13.0256 6.30357 13.0256 6.92112C13.0256 7.53867 13.2479 8.13539 13.6516 8.60116C14.0553 9.06693 14.6131 9.37032 15.222 9.45535C15.8309 9.54038 16.4499 9.40132 16.9648 9.06381C17.4796 8.72631 17.8556 8.21315 18.0232 7.61901H19.9955L22.9616 12.3956H10.0739C9.90626 11.8014 9.5303 11.2883 9.01545 10.9508C8.50061 10.6133 7.88161 10.4742 7.27268 10.5592C6.66375 10.6443 6.10599 10.9477 5.70231 11.4134C5.29863 11.8792 5.07627 12.4759 5.07627 13.0935C5.07627 13.711 5.29863 14.3077 5.70231 14.7735C6.10599 15.2393 6.66375 15.5427 7.27268 15.6277C7.88161 15.7127 8.50061 15.5737 9.01545 15.2362C9.5303 14.8987 9.90626 14.3855 10.0739 13.7914H27.5199L29.5526 16.9333H27.29C27.1557 16.9335 27.0244 16.9725 26.9117 17.0458C26.799 17.1191 26.7098 17.2234 26.6546 17.3464L25.4853 19.9657H19.8707C19.7031 19.3715 19.3271 18.8584 18.8122 18.5209C18.2974 18.1834 17.6784 18.0443 17.0695 18.1293C16.4605 18.2144 15.9028 18.5178 15.4991 18.9835C15.0954 19.4493 14.8731 20.046 14.8731 20.6636C14.8731 21.2811 15.0954 21.8778 15.4991 22.3436C15.9028 22.8094 16.4605 23.1128 17.0695 23.1978C17.6784 23.2828 18.2974 23.1438 18.8122 22.8063C19.3271 22.4687 19.7031 21.9556 19.8707 21.3614H24.8695L21.7124 28.4617H17.1774L15.1273 25.079C15.0655 24.9761 14.9783 24.8911 14.8741 24.8321C14.77 24.7731 14.6524 24.7422 14.5329 24.7422H12.8627C12.6948 24.1483 12.3188 23.6353 11.8039 23.298C11.289 22.9607 10.6701 22.8218 10.0612 22.907C9.45241 22.9921 8.89478 23.2955 8.4912 23.7613C8.08763 24.227 7.86533 24.8236 7.86533 25.4411C7.86533 26.0586 8.08763 26.6552 8.4912 27.121C8.89478 27.5867 9.45241 27.8901 10.0612 27.9753C10.6701 28.0604 11.289 27.9215 11.8039 27.5842C12.3188 27.2469 12.6948 26.734 12.8627 26.14H14.1431L16.1933 29.5227C16.2542 29.6241 16.3399 29.7083 16.4422 29.7672C16.5445 29.8261 16.66 29.8578 16.7779 29.8594H22.1626C22.2971 29.8594 22.4287 29.8201 22.5414 29.7465C22.6542 29.6728 22.7433 29.5679 22.7979 29.4444L27.7401 18.3291H60.5332V19.6857C59.7077 19.8409 58.9482 20.243 58.3543 20.8393C57.7603 21.4356 57.3595 22.1983 57.2046 23.0274ZM60.5332 15.9154V16.9333H31.2091L30.3009 15.5297H60.5078C60.5254 15.657 60.5332 15.7862 60.5332 15.9154ZM16.7273 6.92014C16.7277 7.15029 16.66 7.37538 16.533 7.56691C16.4059 7.75843 16.2252 7.90778 16.0136 7.99603C15.802 8.08428 15.569 8.10748 15.3443 8.06267C15.1196 8.01787 14.9131 7.90708 14.7511 7.74434C14.5891 7.5816 14.4788 7.37422 14.4342 7.14847C14.3896 6.92273 14.4127 6.68876 14.5005 6.4762C14.5884 6.26365 14.7371 6.08206 14.9277 5.95443C15.1184 5.82681 15.3425 5.75889 15.5716 5.75928C15.8778 5.76031 16.1711 5.88295 16.3876 6.10043C16.6042 6.31791 16.7262 6.61258 16.7273 6.92014ZM8.78382 13.0945C8.78382 13.3245 8.71588 13.5494 8.58859 13.7407C8.4613 13.932 8.28039 14.081 8.06876 14.1689C7.85712 14.2569 7.62426 14.2798 7.39965 14.2348C7.17505 14.1898 6.96878 14.0788 6.80697 13.916C6.64515 13.7532 6.53505 13.5458 6.49061 13.3201C6.44616 13.0944 6.46936 12.8605 6.55728 12.6481C6.64519 12.4357 6.79387 12.2542 6.9845 12.1266C7.17512 11.9991 7.39912 11.9312 7.62816 11.9316C7.93484 11.9321 8.22878 12.0549 8.44545 12.2729C8.66212 12.4909 8.78382 12.7864 8.78382 13.0945ZM18.5787 20.6645C18.5787 20.8946 18.5107 21.1195 18.3834 21.3108C18.2561 21.502 18.0752 21.6511 17.8636 21.739C17.652 21.827 17.4191 21.8499 17.1945 21.8049C16.9699 21.7598 16.7636 21.6489 16.6018 21.4861C16.44 21.3233 16.3299 21.1159 16.2854 20.8902C16.241 20.6645 16.2642 20.4306 16.3521 20.2182C16.44 20.0057 16.5887 19.8243 16.7793 19.6967C16.97 19.5692 17.194 19.5013 17.423 19.5017C17.7297 19.5022 18.0236 19.625 18.2403 19.843C18.457 20.061 18.5787 20.3565 18.5787 20.6645ZM11.5629 25.4411C11.5629 25.6711 11.495 25.8959 11.3678 26.0871C11.2406 26.2784 11.0598 26.4274 10.8482 26.5154C10.6367 26.6034 10.404 26.6265 10.1794 26.5816C9.95486 26.5367 9.74859 26.426 9.5867 26.2633C9.4248 26.1007 9.31455 25.8935 9.26988 25.668C9.22522 25.4424 9.24814 25.2086 9.33576 24.9961C9.42337 24.7836 9.57175 24.602 9.76212 24.4743C9.95248 24.3465 10.1763 24.2783 10.4052 24.2783C10.5574 24.278 10.7082 24.3079 10.8488 24.3662C10.9895 24.4246 11.1174 24.5102 11.2251 24.6182C11.3328 24.7262 11.4182 24.8545 11.4765 24.9957C11.5348 25.1369 11.5648 25.2882 11.5648 25.4411H11.5629Z" fill="url(#paint0_linear_9_4450)"/>
<path d="M73.4987 18.7383H75.9289C76.0653 21.1265 77.7316 22.5791 80.7367 22.5791C83.7418 22.5791 85.4139 21.4828 85.4139 19.2335C85.4139 17.3679 84.075 16.5438 81.9995 16.1014L79.201 15.5121C75.888 14.7976 74.1204 13.2609 74.1204 10.3264C74.1204 7.08852 76.5253 5.05847 80.7581 5.05847C84.8507 5.05847 87.5323 7.36258 87.5596 10.7649H85.1274C85.0183 8.68005 83.6541 7.25295 80.7036 7.25295C78.2461 7.25295 76.611 8.15933 76.611 10.3264C76.611 11.8925 77.8388 12.7401 79.8597 13.1786L82.4556 13.7287C86.0063 14.4687 87.8909 16.3069 87.8909 19.2433C87.8909 22.6711 85.1625 24.7579 80.7347 24.7579C76.0868 24.7481 73.602 22.3638 73.4987 18.7383Z" fill="black"/>
<path d="M90.2588 20.4061C90.2588 18.057 91.9251 16.0172 96.0215 16.0172C97.1863 16.0152 98.3454 16.1813 99.4631 16.5105V15.1206C99.4631 13.5545 98.5082 12.2135 96.2417 12.2135C94.1915 12.2135 93.182 13.3646 93.1548 14.7095H90.9467C90.9467 12.0178 93.182 10.2266 96.2456 10.2266C99.8237 10.2266 101.702 12.3936 101.702 15.054V24.4917H99.7535L99.6132 22.5243H99.5041C98.6583 23.9514 97.1012 24.7481 95.1348 24.7481C92.0927 24.7481 90.2588 22.8551 90.2588 20.4061ZM99.4631 19.0632V18.3487C98.3495 18.0072 97.1896 17.8427 96.0254 17.8612C93.7589 17.8612 92.5857 18.7383 92.5857 20.3846C92.5857 21.7843 93.5133 22.8277 95.5343 22.8277C97.9099 22.8277 99.467 21.0991 99.467 19.0691L99.4631 19.0632Z" fill="black"/>
<path d="M106.225 12.4015H103.739V10.481H106.225V8.0399C106.225 5.6242 107.785 3.92891 110.295 3.92891C110.885 3.92532 111.474 3.99102 112.049 4.12467V6.04509C111.599 5.9561 111.142 5.91022 110.684 5.90806C109.32 5.90806 108.527 6.6774 108.527 8.04969V10.481H111.914V12.4015H108.519V24.4995H106.225V12.4015Z" fill="black"/>
<path d="M113.288 17.505C113.288 13.4429 115.282 10.2344 119.598 10.2344C123.531 10.2344 125.64 13.1708 125.64 17.0645V18.1901H115.701C115.701 20.8525 117.04 22.6926 119.636 22.6926C121.465 22.6926 122.775 21.9253 123.159 20.4434H125.453C125.063 23.0235 122.611 24.7501 119.636 24.7501C115.5 24.7481 113.288 21.6199 113.288 17.505ZM123.258 16.2697C123.258 14.0478 122.089 12.2919 119.598 12.2919C116.975 12.2919 115.802 14.0752 115.718 16.2697H123.258Z" fill="black"/>
<path d="M127.813 18.7383H130.245C130.381 21.1265 132.048 22.5791 135.051 22.5791C138.054 22.5791 139.728 21.4828 139.728 19.2335C139.728 17.3679 138.389 16.5438 136.314 16.1014L133.523 15.5121C130.21 14.7976 128.444 13.2609 128.444 10.3264C128.444 7.08852 130.847 5.05847 135.08 5.05847C139.173 5.05847 141.854 7.36258 141.881 10.7649H139.449C139.34 8.68005 137.974 7.25295 135.023 7.25295C132.566 7.25295 130.931 8.15933 130.931 10.3264C130.931 11.8925 132.161 12.7401 134.182 13.1786L136.775 13.7287C140.326 14.4687 142.211 16.3069 142.211 19.2433C142.211 22.6711 139.482 24.7579 135.055 24.7579C130.405 24.7481 127.922 22.3638 127.813 18.7383Z" fill="black"/>
<path d="M146.615 20.9934V12.4289H144.294V10.4712H146.67V7.48589L148.636 6.71851H148.919V10.481H152.331V12.4386H148.919V20.7976C148.919 22.1425 149.492 22.7181 150.749 22.7181C151.209 22.7273 151.668 22.672 152.113 22.5536H152.386V24.5289C151.704 24.6815 151.008 24.7557 150.31 24.7501C147.554 24.7481 146.615 23.321 146.615 20.9934Z" fill="black"/>
<path d="M154.334 20.4061C154.334 18.057 156.001 16.0172 160.097 16.0172C161.261 16.0175 162.419 16.1856 163.535 16.5164V15.1206C163.535 13.5545 162.58 12.2135 160.312 12.2135C158.263 12.2135 157.254 13.3646 157.227 14.7095H155.017C155.017 12.0217 157.258 10.2383 160.315 10.2383C163.893 10.2383 165.772 12.4054 165.772 15.0658V24.5034H163.823L163.66 22.5282H163.55C162.705 23.9553 161.148 24.752 159.181 24.752C156.164 24.7481 154.334 22.8551 154.334 20.4061ZM163.535 19.0691V18.3546C162.422 18.0112 161.262 17.8447 160.097 17.8613C157.831 17.8613 156.656 18.7383 156.656 20.3846C156.656 21.7843 157.585 22.8277 159.606 22.8277C161.976 22.8277 163.535 21.0991 163.535 19.0691Z" fill="black"/>
<path d="M171.769 4.19708V24.4995H169.475V4.19708H171.769ZM180.539 24.2254V24.4995H177.888L171.771 16.626L177.668 10.481H180.373V10.7551L174.721 16.6279L180.539 24.2254Z" fill="black"/>
<path d="M181.074 17.505C181.074 13.4429 183.072 10.2266 187.387 10.2266C191.319 10.2266 193.428 13.163 193.428 17.0567V18.1823H183.489C183.489 20.8447 184.828 22.6848 187.422 22.6848C189.252 22.6848 190.563 21.9174 190.945 20.4355H193.239C192.849 23.0156 190.4 24.7423 187.422 24.7423C183.29 24.7481 181.074 21.6199 181.074 17.505ZM191.045 16.2697C191.045 14.0478 189.875 12.2918 187.385 12.2918C184.762 12.2918 183.588 14.0752 183.507 16.2697H191.045Z" fill="black"/>
<defs>
<linearGradient id="paint0_linear_9_4450" x1="0.000418257" y1="17.503" x2="62.0494" y2="17.503" gradientUnits="userSpaceOnUse">
<stop stop-color="#4DC9F0"/>
<stop offset="0.5" stop-color="#4995EF"/>
<stop offset="1" stop-color="#3F37C9"/>
</linearGradient>
</defs>
</svg>
