<svg id="Layer_1" data-name="Layer 1" xmlns="http://www.w3.org/2000/svg" viewBox="20 25 250 250">
<path d="M186.5,103.45l21.25-12.26V53.92l-77.1,45.7L83,71.49v3.39l47.57,28.39,0,21.19L83,96.34v3.39l0,0v23.78l-.1,0v3.38l47.75,28.45.05,25.56L84.6,153.61l-1.55-1v34.87l47.34,28.25v31.47l77.36-45.18V116.2Zm-10.17,79.46-20.75-12.45,20.92-11.88ZM105.41,113,85.49,125V101.2ZM87.88,126.39l19.93-12L130.64,128l.05,23.7Zm64.61,45.83,22.67,13.59-44.65,26.35L86.12,186l23.52-14,21.12,12.61Zm-67-14.68,21.66,12.93-21.66,13Zm74.26-13.08v-25.6l23.74-13.68L205,118Z"/>
</svg>