<svg id="Layer_1" data-name="Layer 1" xmlns="http://www.w3.org/2000/svg" viewBox="0 50 900 200">
	<path d="M266.74,114.47h51.13v6.77H274.28v27.32h39v6.78h-39v28.73h45v6.78H266.74Z"/>
<path d="M370.76,186.91a23.39,23.39,0,0,1-12.68,4.27q-6.56,0-10.38-4.05T343.88,175V140.91h-8.2l-.1-5.68h8.3V120.48h7.32v14.75l18.58-.11v5.79H351.2V173.8q0,10.6,7.87,10.6a18.81,18.81,0,0,0,9.5-3.06Z"/>
<path d="M436.15,139.33q5.85,6,5.85,16.33v35.19h-7.43V157.41q0-8.08-4.48-12.67t-12.46-4.59q-9.5.1-14.91,6.28t-5.41,16.34v28.08H390V109.77h7.32v37.37Q403.1,133.6,420,133.37,430.3,133.37,436.15,139.33Z"/>
<path d="M500.46,122.39A38.73,38.73,0,0,0,490,120.81q-7.87,0-12.62,3.11a9.66,9.66,0,0,0-4.76,8.47,11.09,11.09,0,0,0,2.63,7.65,18.39,18.39,0,0,0,6.44,4.64,101,101,0,0,0,10.49,3.77A89.36,89.36,0,0,1,504.66,153a22.1,22.1,0,0,1,8.09,6.5q3.33,4.26,3.33,11.25a17.85,17.85,0,0,1-3.44,10.82,22.18,22.18,0,0,1-9.67,7.27,37.32,37.32,0,0,1-14.31,2.56,39.92,39.92,0,0,1-15.57-3.17A41.74,41.74,0,0,1,460,179.81l3.49-6.23a37.8,37.8,0,0,0,11.91,7.87,34.2,34.2,0,0,0,13.33,2.84q8.75,0,13.88-3.55a11.07,11.07,0,0,0,5.14-9.56,11.66,11.66,0,0,0-2.63-7.87,17.36,17.36,0,0,0-6.44-4.7Q494.89,157,488,154.79a107.57,107.57,0,0,1-12.46-4.54,21,21,0,0,1-8-6.33q-3.29-4.21-3.28-11a16.48,16.48,0,0,1,3.28-10.17,20.71,20.71,0,0,1,9.18-6.72,36.82,36.82,0,0,1,13.65-2.34A46,46,0,0,1,514,120.48l-3.28,6.45A39.74,39.74,0,0,0,500.46,122.39Z"/>
<path d="M567.76,186.91a23.39,23.39,0,0,1-12.67,4.27q-6.55,0-10.38-4.05T540.88,175V140.91h-8.19l-.11-5.68h8.3V120.48h7.32v14.75l18.58-.11v5.79H548.2V173.8q0,10.6,7.87,10.6a18.87,18.87,0,0,0,9.51-3.06Z"/>
<path d="M622.39,190.85l-.1-9.62a20.81,20.81,0,0,1-8.85,7.49,30.38,30.38,0,0,1-12.57,2.46,22.38,22.38,0,0,1-10.22-2.24,16.33,16.33,0,0,1-9.23-15,13.76,13.76,0,0,1,5.74-11.69Q592.89,158,603,158h19.23v-4.37q0-6.78-4-10.49t-11.8-3.72q-9.18,0-18.46,6.89l-3.28-5a48.61,48.61,0,0,1,11-6,34.79,34.79,0,0,1,12-1.92q10.38,0,16.07,5.19t5.79,14.37l.11,37.92Zm-7.26-9.35a17.39,17.39,0,0,0,7.16-10v-7.87H603.82q-7.55,0-11.47,2.51a8.35,8.35,0,0,0-3.94,7.54,10.16,10.16,0,0,0,3.77,8.25q3.78,3.12,10,3.12A22.73,22.73,0,0,0,615.13,181.5Z"/>
<path d="M695.71,190.85,675.39,161l-12.9,13.22v16.61h-7.32V109.77h7.32v55.07l30.82-31.25h8.74l-21.53,22.18,24,35.08Z"/>
<path d="M762.14,141.84q7,8.47,6.45,22.78H720.84q.76,9.18,6.78,14.81a20.91,20.91,0,0,0,14.86,5.63,26.06,26.06,0,0,0,10.16-2,23.24,23.24,0,0,0,8.08-5.57l4.16,4.15a28.58,28.58,0,0,1-10,6.94A32.8,32.8,0,0,1,742,191.07a29.34,29.34,0,0,1-14.75-3.66,26.21,26.21,0,0,1-10.11-10.22,32.34,32.34,0,0,1,0-29.89A26.21,26.21,0,0,1,727.29,137a28.91,28.91,0,0,1,14.53-3.66Q755.16,133.37,762.14,141.84Zm-.1,17.1q-.56-9-6-14.26t-14.15-5.3a20.42,20.42,0,0,0-14.42,5.36,21.44,21.44,0,0,0-6.67,14.2Z"/>
<path d="M804.81,136.92a23.62,23.62,0,0,1,12.73-3.55v6.89q-9.07-.1-14.59,5.3t-6.28,14.69v30.6h-7.32V133.59h7.32v13.33A22,22,0,0,1,804.81,136.92Z"/>
<path d="M186.5,103.45l21.25-12.26V53.92l-77.1,45.7L83,71.49v3.39l47.57,28.39,0,21.19L83,96.34v3.39l0,0v23.78l-.1,0v3.38l47.75,28.45.05,25.56L84.6,153.61l-1.55-1v34.87l47.34,28.25v31.47l77.36-45.18V116.2Zm-10.17,79.46-20.75-12.45,20.92-11.88ZM105.41,113,85.49,125V101.2ZM87.88,126.39l19.93-12L130.64,128l.05,23.7Zm64.61,45.83,22.67,13.59-44.65,26.35L86.12,186l23.52-14,21.12,12.61Zm-67-14.68,21.66,12.93-21.66,13Zm74.26-13.08v-25.6l23.74-13.68L205,118Z"/>
</svg>