<?xml version="1.0" standalone="no"?>
<!DOCTYPE svg PUBLIC "-//W3C//DTD SVG 20010904//EN"
 "http://www.w3.org/TR/2001/REC-SVG-20010904/DTD/svg10.dtd">
<svg version="1.0" xmlns="http://www.w3.org/2000/svg"
 width="250.000000pt" height="250.000000pt" viewBox="0 0 250.000000 250.000000"
 preserveAspectRatio="xMidYMid meet">
<metadata>
Created by potrace 1.14, written by Peter Selinger 2001-2017
</metadata>
<g transform="translate(0.000000,250.000000) scale(0.100000,-0.100000)"
fill="#000000" stroke="none">
<path d="M1790 2090 c-52 -33 -106 -65 -120 -73 -20 -11 -139 -81 -318 -188
-15 -9 -71 -42 -125 -74 l-97 -57 -48 31 c-27 17 -52 31 -55 31 -4 0 -31 15
-60 34 -29 19 -69 43 -88 54 -19 10 -73 42 -121 71 -48 28 -91 51 -96 51 -17
0 -7 -32 14 -43 10 -5 117 -68 237 -140 l217 -130 0 -103 0 -103 -107 63 c-60
34 -165 97 -235 139 -71 42 -128 75 -129 74 -1 -1 -2 -71 -3 -155 -3 -146 -2
-153 18 -164 12 -6 119 -69 239 -140 l217 -130 0 -124 c0 -68 -2 -124 -5 -124
-3 0 -22 11 -43 24 -78 50 -413 246 -420 246 -12 0 -9 -337 3 -349 6 -5 87
-55 180 -110 94 -55 195 -116 226 -135 l56 -34 1 -152 c0 -83 2 -153 4 -155 2
-2 112 59 243 136 132 77 258 151 280 164 22 12 87 50 144 83 l105 61 -2 423
c0 233 -1 428 -1 433 -1 6 -46 37 -101 69 -55 32 -97 62 -95 67 3 4 48 31 100
61 52 29 95 58 96 63 6 91 2 365 -6 364 -5 0 -53 -27 -105 -59z m-944 -545
c-14 -11 -42 -29 -63 -40 -21 -10 -49 -27 -62 -37 -13 -10 -28 -18 -32 -18 -5
0 -9 51 -9 114 l0 114 95 -56 96 -57 -25 -20z m972 -1 l53 -32 -108 -63 c-59
-35 -112 -66 -118 -68 -5 -2 -27 -15 -48 -28 -21 -13 -55 -33 -75 -45 -20 -11
-51 -29 -68 -39 l-32 -19 2 126 1 126 115 68 115 67 55 -30 c30 -17 79 -45
108 -63z m-690 -247 l3 -117 -33 19 c-18 10 -96 56 -173 101 -77 46 -157 93
-178 105 l-39 23 98 59 98 59 111 -66 110 -66 3 -117z m-357 -237 c44 -27 84
-50 88 -50 4 0 12 -5 19 -12 12 -12 14 -11 -125 -94 l-73 -43 0 124 c0 69 2
125 5 125 3 0 42 -22 86 -50z m818 -76 c0 -63 -3 -114 -7 -112 -4 2 -49 27
-100 57 -74 43 -90 56 -81 67 6 8 15 14 19 14 3 0 42 20 86 45 43 25 79 45 80
45 1 0 2 -52 3 -116z m-567 -74 c54 -33 104 -60 111 -60 7 0 58 27 114 59
l102 59 108 -65 c59 -36 109 -66 111 -68 1 -1 -68 -44 -155 -95 -87 -52 -186
-110 -220 -131 l-61 -37 -216 127 c-119 69 -215 130 -213 134 2 7 203 134 216
136 2 1 48 -26 103 -59z"/>
</g>
</svg>
