<svg xmlns="http://www.w3.org/2000/svg" width="712" height="860" viewBox="0 0 712 860"><style>.i{fill:#fff;}.j{fill:#fff;}</style><defs><clipPath><path d="m85.8 122.4c-2.8 1.9-5.1 4.6-6.2 7.8-1.4 4-0.9 8.5 0.5 12.5 1.4 4.1 3.8 8 7.4 10.5 1.8 1.2 3.9 2.1 6 2.3 2.2 0.3 4.4-0.1 6.3-1.1 2.4-1.2 4.1-3.4 5.3-5.8 1.1-2.4 1.6-5.1 1.7-7.7 0.2-3.4-0.1-6.8-1.2-10-1.2-3.5-3.4-6.7-6.5-8.7-1.5-1-3.3-1.7-5.1-1.9-1.8-0.3-3.7-0.1-5.4 0.6-1 0.4-1.9 0.9-2.7 1.5" fill="url(#radialGradient29032)"/></clipPath><clipPath><path d="m54.2 122.4c-1.8 0.1-3.5 0.9-4.8 2.1-1.3 1.2-2.2 2.8-2.8 4.5-1.1 3.4-0.9 7.1-0.6 10.6 0.2 3.2 0.5 6.5 1.7 9.5 0.6 1.5 1.5 2.9 2.6 4.1 1.1 1.2 2.6 2 4.1 2.4 1.5 0.4 3 0.3 4.5-0.2 1.4-0.5 2.8-1.3 3.8-2.3 1.6-1.5 2.6-3.6 3.3-5.7 0.6-2.1 0.8-4.4 0.8-6.6 0-2.8-0.4-5.5-1.3-8.2-0.9-2.6-2.2-5.1-4.2-7.1-0.9-1-2-1.8-3.2-2.4-1.2-0.6-2.5-0.9-3.9-0.9" fill="url(#radialGradient29648)"/></clipPath><clipPath><path d="m304.8 225.4c6 4.9 9.8 12.3 10.9 20 1.8 12-2.3 24.1-6.4 35.5-0.8 2.3-1.6 4.6-2 7-0.3 2.4-0.1 4.9 1 7.1 1.3 2.4 3.7 4.1 6.4 4.9 2.6 0.8 5.4 0.8 8 0.1 2.6-0.7 5.1-2 7.2-3.6 5.5-4.3 8.8-11 10-17.8 1.3-6.9 0.6-13.9-0.6-20.8-1.6-9.4-4.3-18.5-7.7-27.4-2.5-6.5-5.5-12.9-9.6-18.5-4-5.5-9.2-10.1-13.1-15.6-2.7-3.8-4.9-8.1-8.2-11.5-1.6-1.7-3.6-3.1-5.8-4-2.2-0.9-4.7-1.1-6.9-0.5-1.5 0.4-2.9 1.2-4 2.3-1.1 1.1-2.1 2.4-2.7 3.8-1.3 2.9-1.5 6.1-1 9.2 0.7 4 2.4 7.7 4.5 11.2 2.3 3.9 4.9 7.7 8.4 10.7 3.6 3 8 5.1 11.6 8.1" style="fill:none;stroke-width:1px;stroke:#c17d11"/></clipPath><clipPath><path d="m516 331.9c-0.7 1.7-1.6 3.3-2.8 4.7-2.6 3.1-6.3 5.2-9.9 7-6.2 3.2-12.6 5.9-18.4 9.7-3.9 2.5-7.5 5.5-10.9 8.7-2.9 2.8-5.6 5.7-8.8 8-3.3 2.4-7 4.1-11 4.7-4.8 0.7-9.8-0.2-14.3-2.2-3.1-1.4-6.2-3.3-8-6.2-1.8-2.9-2.2-6.5-2.2-9.9 0-6.1 1.1-12.1 2.2-18.1 0.9-5 1.7-10 2.3-15 1-9.1 1-18.4 0.3-27.5-0.1-1.5-0.2-3.1 0-4.6 0.2-1.5 0.9-3 2-4 1.1-0.9 2.5-1.3 3.9-1.4 1.4-0.1 2.8 0.1 4.2 0.4 3.3 0.5 6.7 0.9 9.9 1.7 2 0.5 4 1.3 6.1 1.8 3.4 0.9 7 1.4 10.5 1 3.8-0.4 7.4-1.9 11.2-1.8 1.6 0 3.1 0.3 4.6 0.8 1.5 0.5 3 1.2 4.1 2.3 0.8 0.9 1.4 1.9 1.9 3.1 0.7 1.7 1 3.5 1.2 5.2 0.1 1.6 0.1 3.2 0.4 4.8 0.5 2.6 1.8 4.9 3.5 6.9 1.7 2 3.7 3.7 5.7 5.4 2 1.7 4 3.4 6.2 4.8 1 0.7 2.1 1.3 3 2.1 1 0.8 1.8 1.6 2.4 2.7 0.8 1.4 1.1 3.2 0.7 4.8l0 0"/></clipPath><clipPath><path d="m516 331.9c-0.7 1.7-1.6 3.3-2.8 4.7-2.6 3.1-6.3 5.2-9.9 7-6.2 3.2-12.6 5.9-18.4 9.7-3.9 2.5-7.5 5.5-10.9 8.7-2.9 2.8-5.6 5.7-8.8 8-3.3 2.4-7 4.1-11 4.7-4.8 0.7-9.8-0.2-14.3-2.2-3.1-1.4-6.2-3.3-8-6.2-1.8-2.9-2.2-6.5-2.2-9.9 0-6.1 1.1-12.1 2.2-18.1 0.9-5 1.7-10 2.3-15 1-9.1 1-18.4 0.3-27.5-0.1-1.5-0.2-3.1 0-4.6 0.2-1.5 0.9-3 2-4 1.1-0.9 2.5-1.3 3.9-1.4 1.4-0.1 2.8 0.1 4.2 0.4 3.3 0.5 6.7 0.9 9.9 1.7 2 0.5 4 1.3 6.1 1.8 3.4 0.9 7 1.4 10.5 1 3.8-0.4 7.4-1.9 11.2-1.8 1.6 0 3.1 0.3 4.6 0.8 1.5 0.5 3 1.2 4.1 2.3 0.8 0.9 1.4 1.9 1.9 3.1 0.7 1.7 1 3.5 1.2 5.2 0.1 1.6 0.1 3.2 0.4 4.8 0.5 2.6 1.8 4.9 3.5 6.9 1.7 2 3.7 3.7 5.7 5.4 2 1.7 4 3.4 6.2 4.8 1 0.7 2.1 1.3 3 2.1 1 0.8 1.8 1.6 2.4 2.7 0.8 1.4 1.1 3.2 0.7 4.8l0 0"/></clipPath><clipPath><path d="m511.8 331.9c-0.6 1.4-1.4 2.7-2.5 3.8-2.3 2.6-5.5 4.2-8.7 5.7-5.4 2.5-11 4.8-16.1 7.9-3.4 2.1-6.5 4.5-9.5 7.1-2.5 2.2-4.9 4.6-7.7 6.5-2.9 1.9-6.2 3.3-9.6 3.8-4.2 0.6-8.6-0.2-12.5-1.8-2.7-1.1-5.4-2.6-7-5.1-1.5-2.3-1.9-5.3-2-8.1 0-4.9 1-9.8 1.9-14.7 0.8-4 1.5-8.1 2-12.2 0.8-7.4 0.7-14.9 0.3-22.3-0.1-1.2-0.1-2.5 0.1-3.7 0.2-1.2 0.7-2.5 1.7-3.3 0.9-0.8 2.2-1.2 3.5-1.2 1.2-0.1 2.5 0.2 3.7 0.3 2.9 0.4 5.8 0.7 8.7 1.4 1.8 0.4 3.5 1 5.3 1.5 3 0.8 6.1 1.1 9.2 0.8 3.3-0.4 6.5-1.5 9.8-1.4 1.4 0 2.7 0.3 4 0.6 1.3 0.4 2.6 0.9 3.6 1.9 0.7 0.7 1.3 1.6 1.6 2.5 0.6 1.3 0.9 2.8 1 4.3 0.1 1.3 0.1 2.6 0.4 3.9 0.4 2.1 1.6 4.1 3.1 5.7 1.5 1.6 3.2 3 5 4.3 1.8 1.4 3.5 2.7 5.4 3.9 0.9 0.6 1.8 1.1 2.6 1.7 0.8 0.6 1.6 1.3 2.1 2.2 0.7 1.2 0.9 2.6 0.6 3.9l0 0"/></clipPath><clipPath><path d="m386.2 285.3c-0.4-1.1-1.1-2.1-2-2.9-0.9-0.8-1.9-1.4-3-1.9-2.2-0.9-4.5-1.3-6.8-1.7-2.2-0.4-4.3-0.9-6.5-1.3-2.3-0.4-4.6-0.6-6.9-0.1-2 0.4-3.8 1.5-5.3 2.8-1.5 1.4-2.6 3.1-3.5 4.9-1.5 3.2-1.9 6.9-1.7 10.4 0.2 2.6 0.9 5.3 2.6 7.3 1.4 1.6 3.4 2.6 5.4 3.2 3.5 1 7.4 1 10.9-0.2 5.8-1.9 10.9-5.8 14.3-10.8 1.1-1.6 2.1-3.4 2.6-5.4 0.3-1.5 0.3-3.1-0.2-4.5"/></clipPath><clipPath><path d="m386.2 285.3c-0.4-1.1-1.1-2.1-2-2.9-0.9-0.8-1.9-1.4-3-1.9-2.2-0.9-4.5-1.3-6.8-1.7-2.2-0.4-4.3-0.9-6.5-1.3-2.3-0.4-4.6-0.6-6.9-0.1-2 0.4-3.8 1.5-5.3 2.8-1.5 1.4-2.6 3.1-3.5 4.9-1.5 3.2-1.9 6.9-1.7 10.4 0.2 2.6 0.9 5.3 2.6 7.3 1.4 1.6 3.4 2.6 5.4 3.2 3.5 1 7.4 1 10.9-0.2 5.8-1.9 10.9-5.8 14.3-10.8 1.1-1.6 2.1-3.4 2.6-5.4 0.3-1.5 0.3-3.1-0.2-4.5"/></clipPath><clipPath><path d="m248.1 184.6c-2.6 3.4-5.2 6.9-7.9 10.2-2.8 3.6-5.7 7.2-8.6 10.8-3.5 4.4-7.2 8.8-9.4 13.9-2 4.4-2.9 9.2-4.3 13.8-1.5 5.3-3.6 10.4-6 15.3-2.2 4.6-4.5 9.1-6.9 13.5-1.7 3.3-3.5 6.6-4.1 10.2-0.5 2.9-0.2 5.8 0.5 8.7 0.7 2.8 1.9 5.5 3.2 8.1 5.7 11.1 14.2 20.6 24.2 27.9 4.6 3.3 9.5 6.2 14.6 8.5 2.8 1.3 5.7 2.4 8.8 2.5 1.5 0 3.1-0.2 4.5-0.8 1.4-0.6 2.7-1.6 3.5-2.9 1-1.6 1.4-3.5 1.2-5.4-0.2-1.9-0.9-3.7-1.9-5.3-2.4-3.9-6.2-6.8-9.8-9.6-7.8-6.1-15.4-12.5-22.7-19.2-2-1.9-4.1-3.9-5.5-6.3-1.4-2.3-2.1-5-2.7-7.7-1.4-7.3-1-15.1 1.5-22.1 1-2.8 2.3-5.4 3.5-8 2.2-4.6 4.2-9.3 7-13.5 3.5-5.2 8.2-9.7 11.2-15.3 2.5-4.7 3.5-10.1 4.4-15.3 0.7-4 1.2-8.1 1.7-12.1" style="fill:none;stroke-width:0.13;stroke:#729fcf"/></clipPath><clipPath><path d="m137.6 281c1.6-0.7 3.4-0.8 5.1-0.5 1.7 0.3 3.3 1 4.7 2 2.9 1.9 5 4.8 7 7.6 4.7 6.4 9.2 13 13.2 19.8 3.3 5.5 6.3 11.3 10.2 16.5 2.5 3.4 5.3 6.5 7.8 9.9 2.5 3.4 4.7 7.1 5.8 11.1 1.4 5.3 0.9 11.1-1.6 16-1.8 3.4-4.5 6.4-7.8 8.3-3.3 2-7.2 3-11 2.9-6.1-0.2-11.7-3.3-17.4-5.5-11.6-4.6-24.2-6.1-36.1-9.7-3.7-1.1-7.3-2.4-11-3.4-1.6-0.5-3.3-0.8-4.9-1.6-1.6-0.7-3-1.7-3.9-3.2-0.7-1.1-0.9-2.5-0.9-3.8 0-1.3 0.3-2.6 0.8-3.9 0.9-2.5 2.3-4.7 3.3-7.2 1.6-4 1.9-8.4 1.7-12.7-0.2-4.3-0.9-8.5-1.2-12.8-0.1-1.9-0.2-3.9 0.2-5.7 0.4-1.9 1.2-3.7 2.6-5.1 1.3-1.2 3-2 4.7-2.3 1.7-0.4 3.5-0.4 5.3-0.3 1.8 0 3.5 0.1 5.3 0 1.8-0.1 3.5-0.5 5.1-1.4 1.5-0.8 2.7-2.1 3.6-3.4 1-1.4 1.8-2.8 2.6-4.3 0.8-1.5 1.7-2.9 2.7-4.2 1.1-1.3 2.4-2.4 3.9-3.1"/></clipPath></defs><path d="M683.9 677.7c0 0 0 0 0 0 -6.1-6.8-9-19.5-12.1-33.1 -3.1-13.5-6.6-28.1-17.7-37.5 0 0-0.1 0-0.1-0.1 -2.2-1.9-4.5-3.5-6.7-4.9 -2.3-1.3-4.6-2.4-6.9-3.3 15.4-45.8 9.4-91.3-6.2-132.5 -19.1-50.5-52.5-94.6-78-124.7 -28.5-36-56.4-70.1-55.9-120.6C501.3 144 508.9 1.2 373.4 1c-5.5 0-11.3 0.2-17.2 0.7C204.7 13.9 244.8 173.9 242.6 227.5c-2.8 39.2-10.7 70.1-37.7 108.4 -31.6 37.6-76.2 98.6-97.3 162 -10 29.9-14.7 60.4-10.3 89.3 -1.4 1.2-2.7 2.5-3.9 3.8 -9.3 9.9-16.2 21.9-23.8 30 -7.1 7.1-17.3 9.9-28.5 13.9 -11.2 4-23.5 9.9-30.9 24.3 0 0 0 0 0 0 0 0 0 0.1 0 0.1 -3.5 6.6-4.6 13.6-4.6 20.8 0 6.6 1 13.4 2 19.8 2.1 13.5 4.2 26.2 1.4 34.8 -8.9 24.2-10 41-3.8 53.1 6.3 12.2 19.1 17.6 33.6 20.6 29.1 6.1 68.4 4.6 99.4 21l2.7-5 -2.6 5c33.2 17.4 66.9 23.5 93.7 17.4 19.5-4.4 35.3-16 43.4-33.9 21-0.1 44.1-9 81-11 25.1-2 56.3 8.9 92.3 6.9 0.9 3.9 2.3 7.7 4.2 11.2 0 0 0 0.1 0.1 0.1 13.9 27.9 39.9 40.7 67.5 38.5 27.7-2.2 57.1-18.5 80.9-46.8l-4.4-3.7 4.4 3.6c22.7-27.5 60.3-38.9 85.2-53.9 12.5-7.5 22.6-16.9 23.4-30.6C710.4 713.6 702.4 698.2 683.9 677.7z"/><path d="M698.2 726.6c-0.5 8.4-6.6 14.7-17.9 21.5 -22.6 13.6-62.6 25.5-88.1 56.4 -22.2 26.4-49.2 40.9-73 42.8s-44.3-8-56.5-32.3l0 0 0-0.1c-7.5-14.3-4.4-36.8 1.9-60.6 6.3-23.8 15.4-48.2 16.7-68.1v-0.1c1.3-25.4 2.7-47.7 7-64.8 4.3-17.1 11-28.7 22.9-35.3 0.6-0.3 1.1-0.6 1.7-0.9 1.4 22 12.3 44.5 31.5 49.4 21.1 5.6 51.5-12.5 64.4-27.3 2.6-0.1 5.1-0.2 7.5-0.3 11.3-0.3 20.7 0.4 30.4 8.8l0 0 0 0c7.4 6.3 11 18.2 14 31.5 3.1 13.3 5.5 27.8 14.7 38.1l0 0 0 0C693.1 704.9 698.7 718.1 698.2 726.6z" class="i"/><path d="M269.5 789l0 0.1v0.1c-2 26.7-17.1 41.3-40.3 46.6 -23.1 5.3-54.5 0-85.9-16.4 0 0 0 0 0 0 -34.7-18.4-75.9-16.5-102.4-22.1 -13.2-2.8-21.9-6.9-25.8-14.6 -4-7.7-4-21.2 4.4-44.2l0-0.1 0-0.1c4.2-12.8 1.1-26.9-0.9-40.1 -2-13.2-3-25.2 1.5-33.6l0-0.1c5.8-11.1 14.2-15.1 24.7-18.9 10.5-3.8 23-6.7 32.8-16.6l0.1 0 0.1 0c9.1-9.6 15.9-21.6 23.9-30.1 6.7-7.2 13.5-12 23.7-12 0.1 0 0.2 0 0.4 0 1.8 0 3.7 0.2 5.7 0.5 13.5 2 25.3 11.5 36.6 26.9l32.7 59.7 0 0 0 0c8.7 18.2 27.1 38.2 42.7 58.6C259 752.8 271.1 773.3 269.5 789z" class="j"/><path d="M432.8 232.7c-2.6-5.1-8-10-17.1-13.8l0 0 0 0c-19-8.1-27.3-8.7-37.9-15.6 -17.3-11.1-31.5-15-43.4-14.9 -6.2 0-11.8 1.1-16.7 2.8 -14.4 5-24 15.3-30 21l0 0c0 0 0 0 0 0 -1.2 1.1-2.7 2.1-6.4 4.8 -3.7 2.7-9.3 6.8-17.3 12.8 -7.1 5.3-9.4 12.3-7 20.4 2.5 8.1 10.3 17.5 24.6 25.6l0 0 0 0c8.9 5.2 15 12.3 22 17.9 3.5 2.8 7.2 5.3 11.6 7.2 4.4 1.9 9.6 3.2 16 3.6 15.2 0.9 26.3-3.7 36.2-9.3 9.9-5.6 18.2-12.5 27.8-15.6l0 0 0 0c19.7-6.1 33.7-18.5 38.1-30.3C435.5 243.4 435.4 237.8 432.8 232.7z" class="j"/><path d="m382.9 261.7c-15.6 8.2-33.9 18-53.3 18-19.4 0-34.8-9-45.8-17.7-5.5-4.4-10-8.7-13.4-11.9-5.9-4.6-5.2-11.1-2.8-10.9 4 0.5 4.6 5.8 7.2 8.2 3.4 3.2 7.8 7.4 13 11.5 10.4 8.3 24.4 16.3 41.8 16.3 17.4 0 37.7-10.2 50.1-17.2 7-3.9 16-11 23.3-16.4 5.6-4.1 5.4-9 10-8.5 4.6 0.5 1.2 5.5-5.3 11.1-6.5 5.6-16.5 13.1-24.7 17.4z"/><path d="M622.4 595.5c-2.2-0.1-4.3-0.1-6.4 0 -0.2 0-0.4 0-0.6 0 5.4-17-6.5-29.5-38.2-43.8 -32.8-14.4-59-13-63.4 16.3 -0.3 1.5-0.5 3.1-0.7 4.7 -2.5 0.9-4.9 1.9-7.4 3.3 -15.4 8.4-23.8 23.7-28.5 42.5 -4.7 18.8-6 41.4-7.3 66.9 0 0 0 0 0 0 -0.8 12.8-6.1 30.2-11.4 48.5 -53.8 38.4-128.4 55-191.8 11.7 -4.3-6.8-9.2-13.5-14.3-20.2 -3.2-4.2-6.6-8.4-9.9-12.6 6.5 0 12-1.1 16.5-3.1 5.6-2.5 9.5-6.6 11.4-11.8 3.9-10.4 0-25-12.4-41.8 -12.4-16.7-33.3-35.6-64.1-54.5 0 0 0 0 0 0 -22.6-14.1-35.3-31.3-41.2-50 -5.9-18.7-5.1-39-0.5-59 8.8-38.4 31.3-75.7 45.6-99.1 3.9-2.8 1.4 5.3-14.5 34.8 -14.3 27-40.9 89.4-4.4 138.1 1-34.6 9.3-70 23.1-103 20.2-45.8 62.5-125.4 65.9-188.8 1.7 1.3 7.7 5.3 10.3 6.8 0 0 0 0 0 0 7.8 4.6 13.6 11.3 21.1 17.3 7.6 6.1 17 11.3 31.3 12.2 1.4 0.1 2.7 0.1 4 0.1 14.7 0 26.2-4.8 35.8-10.3 10.4-5.9 18.7-12.5 26.6-15.1 0 0 0 0 0 0 16.6-5.2 29.8-14.4 37.4-25.1 12.9 50.9 43 124.5 62.3 160.4 10.3 19 30.7 59.5 39.5 108.3 5.6-0.2 11.8 0.6 18.3 2.3 23.1-59.8-19.6-124.2-39.1-142.2 -7.9-7.6-8.2-11.1-4.3-10.9 21.1 18.7 48.9 56.3 59 98.8 4.6 19.4 5.6 39.7 0.6 59.8 2.4 1 4.9 2.1 7.4 3.3C615.3 558.4 629 574.1 622.4 595.5z" fill="#FFF"/><path d="m434.5 174c0.1 10.1-1.7 18.7-5.5 27.5-2.2 5-4.7 9.2-7.7 12.8-1-0.5-2.1-1-3.2-1.4-3.8-1.6-7.2-3-10.2-4.1-3-1.1-5.4-1.9-7.8-2.8 1.8-2.1 5.2-4.6 6.5-7.8 2-4.7 2.9-9.4 3.1-14.9 0-0.2 0.1-0.4 0.1-0.7 0.1-5.3-0.6-9.8-2.1-14.5-1.6-4.9-3.7-8.4-6.7-11.3-3-2.9-6-4.2-9.5-4.3-0.2 0-0.3 0-0.5 0-3.4 0-6.3 1.2-9.3 3.7-3.2 2.7-5.5 6-7.5 10.8-1.9 4.7-2.9 9.4-3.1 15 0 0.2 0 0.4 0 0.6-0.1 3.1 0.1 5.9 0.6 8.6-6.9-3.4-15.7-5.9-21.8-7.4-0.3-2.6-0.5-5.3-0.6-8.2l0-0.8c-0.1-10.1 1.5-18.7 5.4-27.4 3.9-8.8 8.7-15.1 15.4-20.2 6.8-5.1 13.4-7.5 21.2-7.5l0.4 0c7.7 0 14.3 2.3 21 7.2 6.9 5 11.8 11.2 15.8 19.9 3.9 8.5 5.8 16.8 6 26.6 0 0.3 0 0.5 0.1 0.7z" class="i"/><path d="m318.4 184.1c-1 0.3-2 0.6-3 0.9-5.5 1.9-9.9 4-14.1 6.8 0.4-2.9 0.5-5.9 0.2-9.2 0-0.2 0-0.3 0-0.5-0.4-4.4-1.4-8.1-2.9-11.8-1.6-3.9-3.5-6.6-5.9-8.7-2.2-1.9-4.3-2.8-6.6-2.8-0.2 0-0.5 0-0.7 0-2.6 0.2-4.7 1.5-6.7 4-2 2.5-3.3 5.5-4.3 9.6-1 4.1-1.2 8-0.8 12.6 0 0.2 0 0.3 0 0.5 0.4 4.4 1.3 8.1 2.9 11.8 1.6 3.8 3.5 6.6 5.9 8.7 0.4 0.4 0.8 0.7 1.2 1-2.5 2-4.2 3.3-6.3 4.9-1.3 1-2.9 2.1-4.7 3.5-4-3.8-7.1-8.5-9.9-14.7-3.2-7.4-5-14.7-5.5-23.4l0-0.1c-0.5-8.7 0.4-16.2 2.8-23.9 2.4-7.7 5.6-13.3 10.3-17.9 4.6-4.6 9.3-6.9 15-7.2 0.4 0 0.9 0 1.3 0 5.1 0 9.7 1.7 14.4 5.5 5.1 4.1 9 9.3 12.2 16.7 3.3 7.4 5 14.7 5.5 23.4l0 0.1c0.2 3.7 0.2 7.1-0.1 10.4z" class="i"/><path d="m344.1 204.9c0.6 2.1 4 1.7 5.9 2.7 1.7 0.9 3.1 2.8 5 2.8 1.8 0.1 4.7-0.6 4.9-2.4 0.3-2.4-3.2-3.9-5.4-4.8-2.9-1.1-6.6-1.7-9.3-0.2-0.6 0.3-1.3 1.2-1.1 1.8z"/><path d="m324.3 204.9c-0.6 2.1-4 1.7-5.9 2.7-1.7 0.9-3.1 2.8-5 2.8-1.8 0.1-4.7-0.6-4.9-2.4-0.3-2.4 3.2-3.9 5.4-4.8 2.9-1.1 6.6-1.7 9.3-0.2 0.6 0.3 1.3 1.2 1.1 1.8z"/></svg>