<svg id="Layer_1" data-name="Layer 1" xmlns="http://www.w3.org/2000/svg" xmlns:xlink="http://www.w3.org/1999/xlink" viewBox="0 0 500 500"><defs><style>.cls-1{fill:#333;}.cls-2{fill:url(#linear-gradient);}</style><linearGradient id="linear-gradient" x1="177" y1="205.37" x2="350.28" y2="205.37" gradientUnits="userSpaceOnUse"><stop offset="0" stop-color="aqua"/><stop offset="0.51" stop-color="#00b7dd"/><stop offset="1" stop-color="#0071bc"/></linearGradient></defs><path class="cls-1" d="M56.18,375.71H92.06v4.76H61.47v19.17H88.84v4.75H61.47v20.17H93.06v4.75H56.18Z"/><path class="cls-1" d="M129.18,426.55a16.34,16.34,0,0,1-8.9,3,9.55,9.55,0,0,1-7.28-2.83q-2.69-2.83-2.69-8.51V394.27h-5.75l-.07-4h5.82V379.93h5.14v10.35l13-.07v4.06h-13v23.08q0,7.44,5.52,7.44a13.11,13.11,0,0,0,6.67-2.15Z"/><path class="cls-1" d="M175.07,393.16q4.11,4.18,4.1,11.46v24.69H174V405.85q0-5.67-3.14-8.89c-2.1-2.15-5-3.23-8.75-3.23q-6.66.09-10.46,4.41t-3.8,11.47v19.7h-5.14V372.42h5.14v26.22q4.06-9.51,15.95-9.66C168.56,389,172.34,390.37,175.07,393.16Z"/><path class="cls-1" d="M220.2,381.27a27,27,0,0,0-7.36-1.11,15.92,15.92,0,0,0-8.86,2.19,6.78,6.78,0,0,0-3.34,5.94,7.81,7.81,0,0,0,1.84,5.37,13.16,13.16,0,0,0,4.53,3.26,71.78,71.78,0,0,0,7.36,2.64,65,65,0,0,1,8.78,3.18,15.54,15.54,0,0,1,5.67,4.57,13.81,13.81,0,0,1-.07,15.49,15.43,15.43,0,0,1-6.79,5.1,26.18,26.18,0,0,1-10,1.8A28,28,0,0,1,201,427.47a29.57,29.57,0,0,1-9.17-5.9l2.46-4.37a26.47,26.47,0,0,0,8.36,5.52,24.05,24.05,0,0,0,9.35,2q6.13,0,9.74-2.49a7.78,7.78,0,0,0,3.61-6.71,8.17,8.17,0,0,0-1.85-5.52,12.17,12.17,0,0,0-4.52-3.3c-1.79-.76-4.29-1.66-7.51-2.68a78,78,0,0,1-8.75-3.18,14.76,14.76,0,0,1-5.59-4.45,12.16,12.16,0,0,1-2.3-7.71,11.52,11.52,0,0,1,2.3-7.13,14.55,14.55,0,0,1,6.44-4.71,25.74,25.74,0,0,1,9.58-1.65,32.32,32.32,0,0,1,16.57,4.75l-2.3,4.53A27.72,27.72,0,0,0,220.2,381.27Z"/><path class="cls-1" d="M267.43,426.55a16.31,16.31,0,0,1-8.89,3,9.56,9.56,0,0,1-7.29-2.83q-2.69-2.83-2.68-8.51V394.27h-5.75l-.08-4h5.83V379.93h5.14v10.35l13-.07v4.06h-13v23.08q0,7.44,5.52,7.44a13.14,13.14,0,0,0,6.67-2.15Z"/><path class="cls-1" d="M305.77,429.31l-.07-6.74a14.64,14.64,0,0,1-6.21,5.25,21.32,21.32,0,0,1-8.82,1.72A15.64,15.64,0,0,1,283.5,428,11.46,11.46,0,0,1,277,417.43a9.68,9.68,0,0,1,4-8.21q4-3,11.08-3h13.5v-3.06a9.52,9.52,0,0,0-2.84-7.37q-2.83-2.6-8.28-2.6-6.44,0-13,4.83l-2.3-3.53a34.36,34.36,0,0,1,7.75-4.18,24.61,24.61,0,0,1,8.43-1.34q7.29,0,11.27,3.64t4.07,10.09l.08,26.6Zm-5.1-6.55a12.23,12.23,0,0,0,5-7v-5.52h-13q-5.3,0-8.05,1.76a5.87,5.87,0,0,0-2.76,5.3,7.15,7.15,0,0,0,2.64,5.79,10.71,10.71,0,0,0,7,2.18A15.94,15.94,0,0,0,300.67,422.76Z"/><path class="cls-1" d="M357.23,429.31,343,408.38l-9,9.28v11.65h-5.13V372.42h5.13v38.64l21.63-21.93h6.13l-15.1,15.57,16.87,24.61Z"/><path class="cls-1" d="M403.85,394.92q4.9,5.94,4.52,16H374.86a15.45,15.45,0,0,0,4.76,10.39,14.68,14.68,0,0,0,10.43,3.95,18.31,18.31,0,0,0,7.13-1.38,16.22,16.22,0,0,0,5.67-3.91l2.92,2.91a20.09,20.09,0,0,1-7,4.87,23,23,0,0,1-9,1.73,20.59,20.59,0,0,1-10.35-2.57,18.4,18.4,0,0,1-7.1-7.17,22.67,22.67,0,0,1,0-21,18.3,18.3,0,0,1,7.1-7.21,20.28,20.28,0,0,1,10.2-2.57Q398.94,389,403.85,394.92Zm-.08,12a14.66,14.66,0,0,0-4.18-10,13.58,13.58,0,0,0-9.93-3.72A14.32,14.32,0,0,0,379.54,397a15,15,0,0,0-4.68,10Z"/><path class="cls-1" d="M433.79,391.47a16.51,16.51,0,0,1,8.94-2.49v4.83q-6.37-.07-10.24,3.72a15.7,15.7,0,0,0-4.41,10.31v21.47h-5.14V389.13h5.14v9.36A15.38,15.38,0,0,1,433.79,391.47Z"/><path class="cls-2" d="M320.75,139.93l29.51-17V71.17l-107,63.45L177.08,95.56v4.71l66,39.41.07,29.42-66.11-39v4.7l0,0v33l-.13-.08v4.71l66.28,39.49.08,35.48-64.08-37.84-2.15-1.33v48.41l65.72,39.22v43.69l107.41-62.72V162.38l0-4.75ZM306.64,250.24,277.83,233l29.05-16.5Zm-98.47-97-27.65,16.58v-33Zm-24.33,18.57,27.67-16.59L243.2,174l.07,32.9Zm89.7,63.63L305,254.27l-62,36.58L181.4,254.47,214.05,235l29.32,17.51Zm-93-20.38L210.59,233l-30.07,18Zm103.1-18.15V161.33l32.95-19,29.92,17.8Z"/></svg>